<?xml version="1.0" encoding="UTF-8"?>
<!DOCTYPE svg PUBLIC "-//W3C//DTD SVG 1.1//EN" "http://www.w3.org/Graphics/SVG/1.1/DTD/svg11.dtd">
<!-- Creator: CorelDRAW -->
<svg xmlns="http://www.w3.org/2000/svg" xml:space="preserve" width="11.2655in" height="2.48572in" version="1.1" style="shape-rendering:geometricPrecision; text-rendering:geometricPrecision; image-rendering:optimizeQuality; fill-rule:evenodd; clip-rule:evenodd"
viewBox="0 0 11387.49 2512.64"
 xmlns:xlink="http://www.w3.org/1999/xlink"
 xmlns:xodm="http://www.corel.com/coreldraw/odm/2003">
 <defs>
  <style type="text/css">
   <![CDATA[
    .fil0 {fill:#FC8A8A}
    .fil2 {fill:#FFB2B2}
    .fil1 {fill:#FFC4C4}
    .fil3 {fill:#FFFCF2}
   ]]>
  </style>
 </defs>
 <g id="Layer_x0020_1">
  <metadata id="CorelCorpID_0Corel-Layer"/>
  <g id="_2453837670720">
   <g>
    <path class="fil0" d="M8636.64 1833.94c26.36,152.63 49.92,277.05 -53.77,382.53 -81.14,82.53 -266.13,113.95 -379.94,34.22 -89.06,-62.38 -122.94,-252.41 -2.18,-338.23 101.85,-72.38 292.62,-85.23 435.89,-78.52zm2732.01 -1773.02l0 63.94c-118.19,-33.4 -214.48,-68.32 -380.98,-73.91 -872.34,-29.3 -1009.11,837.41 -1441.14,1477.99 -233.41,346.09 -510.54,311.77 -848.82,310.36 117.02,581.62 -398.61,559.98 -544.85,446.27 -73.47,-57.12 -298.98,-501.65 455.32,-510.4 -64.61,-259.72 -350.4,-585.01 -601.18,-697.9 -495.82,-223.2 -1047.58,88.79 -1333.98,459.69 -231.17,299.39 -173.35,388.14 -559.48,748.99 -129.33,120.87 -254.4,162.31 -353.81,216.26l-164.91 0c58.99,-25.29 129.16,-43.85 183.1,-69.64 87.32,-41.76 146.51,-76.18 215.25,-127.22 513.14,-381.08 440.56,-755.26 967.53,-1119.61 618.93,-427.95 1237.79,-276.86 1598.63,351.08 39.76,69.18 71.96,178.02 125.86,235.57 125.27,40.84 392.45,16.91 515.77,-28.84 741.88,-275.27 577.24,-2096.56 2167.68,-1682.61z"/>
    <path class="fil0" d="M10083.48 1179.37c79.16,369.14 671.91,310.26 612.6,-125.05 -54.08,-396.88 -704.41,-303.06 -612.6,125.05z"/>
    <path class="fil1" d="M8805.83 737.48c40.64,162.04 339.44,125.52 282.55,-90.72 -44.49,-169.05 -334.39,-116.05 -282.55,90.72z"/>
    <path class="fil2" d="M10756.87 1725.73c-11.86,85.93 11.45,170.12 116.22,135.7 90.31,-29.66 52.75,-118.45 18.96,-163.71 -75.35,-14.93 -89.87,-3.68 -135.18,28.02z"/>
    <path class="fil1" d="M11042.68 471.11c-77.87,48.09 -1.11,157.32 76.8,108.73 39.85,-24.85 44.4,-111.1 -23.61,-121.11 -44.85,-6.61 -40.23,4.39 -53.19,12.38z"/>
    <g>
     <path class="fil1" d="M343.53 746.8c28.11,224.81 401.97,198.03 372.44,-55.08 -26.52,-227.3 -404.71,-202.97 -372.44,55.08z"/>
     <path class="fil1" d="M1341.62 1250.05c51.61,-112.65 -108.47,-175.01 -158.85,-83.17 -62.7,114.26 110.24,189.29 158.85,83.17z"/>
     <path class="fil1" d="M0.61 812.04c8.61,65.2 117.38,55.73 107.86,-16.65 -8.85,-67.2 -117.52,-56.53 -107.86,16.65z"/>
     <path class="fil1" d="M456.16 157.95l2.97 52.26 51.81 7.73c37.92,-35.92 36.05,-68.96 -18.26,-82.5l-36.52 22.51z"/>
    </g>
   </g>
   <path class="fil3" d="M9546.53 1528.94c-233.41,346.09 -510.54,311.77 -848.82,310.36 117.02,581.62 -398.61,559.98 -544.85,446.27 -73.47,-57.12 -298.98,-501.65 455.32,-510.4 -64.61,-259.72 -350.4,-585.01 -601.18,-697.9 -495.82,-223.2 -1047.58,88.79 -1333.98,459.69 -231.17,299.39 -173.35,388.14 -559.48,748.99 -126.57,118.29 -244.29,170.51 -342.44,223.26 -2.14,1.15 -4.27,2.3 -6.39,3.45l5622.77 0 0 -3.45 0 -2383.2c-117.9,-33.33 -233.72,-69.47 -399.82,-75.05 -872.34,-29.3 -1009.11,837.41 -1441.14,1477.99zm1149.54 -474.62c59.32,435.31 -533.44,494.19 -612.6,125.06 -91.81,-428.12 558.52,-521.94 612.6,-125.06zm423.41 -474.47c-77.92,48.58 -154.67,-60.64 -76.8,-108.74 12.95,-7.99 8.34,-18.98 53.18,-12.38 68.02,10.01 63.46,96.26 23.61,121.12zm-246.39 1281.59c-104.78,34.42 -128.09,-49.77 -116.22,-135.7 45.31,-31.7 59.83,-42.95 135.18,-28.02 33.79,45.27 71.35,134.05 -18.96,163.72z"/>
  </g>
 </g>
</svg>
