<?xml version="1.0" encoding="UTF-8"?>
<!DOCTYPE svg PUBLIC "-//W3C//DTD SVG 1.1//EN" "http://www.w3.org/Graphics/SVG/1.1/DTD/svg11.dtd">
<!-- Creator: CorelDRAW -->
<svg xmlns="http://www.w3.org/2000/svg" xml:space="preserve" width="3.36052in" height="10.4664in" version="1.1" style="shape-rendering:geometricPrecision; text-rendering:geometricPrecision; image-rendering:optimizeQuality; fill-rule:evenodd; clip-rule:evenodd"
viewBox="0 0 2445.79 7617.49"
 xmlns:xlink="http://www.w3.org/1999/xlink"
 xmlns:xodm="http://www.corel.com/coreldraw/odm/2003">
 <defs>
  <style type="text/css">
   <![CDATA[
    .fil0 {fill:#E01D1D}
   ]]>
  </style>
 </defs>
 <g id="Layer_x0020_1">
  <metadata id="CorelCorpID_0Corel-Layer"/>
  <g id="_2453838483600">
   <path class="fil0" d="M945.47 7417.27l-581.49 0c9.91,37.11 65.31,72.84 97.57,88.85 94.07,46.74 287.91,39.36 382.59,0.69 45.49,-18.59 76.07,-51.84 101.33,-89.55zm-563.73 -115.4c-17.01,4.54 -12.35,6.68 -26.64,35.5 -6.83,13.76 -16.23,26.2 -17.75,44.39l84.34 0c-11.47,-21.67 -34.11,-54.85 -39.95,-79.89zm133.16 -4.44c-7.26,31.13 -32.4,51.91 -39.95,84.33l84.34 0c-3.51,-15.05 -11.64,-29.19 -19.62,-42.52l-24.77 -41.81zm133.17 0c-6.84,29.38 -35.15,63.73 -39.95,84.33l88.78 0c-22.75,-33.97 -26.12,-58.21 -48.83,-84.33zm146.48 0l-12.02 19.05c-11.15,19.66 -27.21,43.15 -32.37,65.28l84.34 0c-7.25,-31.13 -32.4,-51.91 -39.95,-84.33zm128.72 0c-7.39,31.74 -34.24,59.82 -39.95,84.33l84.34 0 -30.13 -63.08c-1.72,-2.86 -4.66,-7.64 -6.83,-10.92 -5.56,-8.34 -1.62,-3.64 -7.43,-10.32zm-426.12 -35.51l-102.09 0c5,18.76 44.56,79.35 48.83,97.65 18,-13.2 42.34,-73.22 53.26,-97.65zm275.2 0l-102.1 0 48.84 97.65c14.23,-10.43 18.54,-30.33 28.5,-46.95l24.76 -50.7zm133.17 0l-93.22 0c7.39,31.75 38.64,68.58 44.39,93.22l48.83 -93.22zm133.16 0l-93.22 0c7.26,31.14 32.4,51.92 39.95,84.34l53.26 -84.34zm-679.14 0l-93.21 0c8.38,15.84 16.04,25.6 25.77,40.8 9.13,14.25 14.97,29.91 27.49,39.1 5.39,-23.18 28.78,-58.79 39.95,-79.9zm275.21 0l-97.65 0c8.2,35.18 36.18,58.03 44.39,93.22 17.36,-19.97 36.09,-67.57 53.26,-93.22zm670.26 -173.12c-4.9,18.34 -45.61,35.94 -79.34,62.71 -146.66,116.45 -139.67,266.65 -221.31,351.3 -150.74,156.31 -562.32,148 -699.32,4.46 -70.46,-73.83 -74.6,-176.34 -153.49,-281.52 -76.99,-102.67 -144.46,-110.36 -151.56,-136.96 40.72,-3.39 19.03,-14.21 81.11,-5.66 23.03,3.17 65.96,5.34 87.59,5.63 35.41,0.48 149.01,11.09 175.65,7.03 54.7,-8.34 94.34,-0.11 163.45,-22.99 37.1,-12.29 100.15,-43.32 109.19,-77.23l8.89 0c11.24,48.31 -47.09,102.8 -82.48,126.15 -72.66,47.95 -199.23,46.5 -289.69,37.39 -27.05,-2.72 -62.71,-10.39 -89.48,-12.62 14.76,22.05 42.56,41.39 58.24,61.61 6.45,8.31 8.35,18.29 21.66,18.29l816.74 0c12.67,0 16.79,-10.17 22.31,-17.62 7.15,-9.64 9.51,-12.15 18.71,-21.26 14.09,-13.93 28.29,-25.2 38.88,-41.02 -24.69,2.06 -61.47,9.13 -85.55,12.11 -135.54,16.79 -303.77,10.97 -368.87,-121.54 -11.56,-23.56 -9.21,-17.59 -7.22,-41.48l8.88 0c8.85,33.18 72.32,66.26 109.32,77.1 86.77,25.42 98.9,13.29 163.32,23.12 22.84,3.48 233.99,-8.64 263.25,-12.67 38.18,-5.26 45.83,-2.56 81.11,5.66z"/>
   <path class="fil0" d="M1788.84 5832.61c91.31,0 180.49,-12.82 245.59,-65.13 16.57,-13.31 41.73,-38.02 47.38,-59.16l-581.49 0c39.95,75.52 110.62,101.72 190.81,115.47 24.16,4.15 70.96,8.82 97.71,8.82zm-128.73 -239.7c-18.96,13.89 -36.54,61.13 -48.82,84.34l88.77 0c-7.55,-32.42 -32.7,-53.2 -39.95,-84.34zm133.17 0c-9.7,7.12 -19.82,28.74 -26.43,40.15 -8.22,14.18 -14.73,29.72 -22.4,44.2l88.78 0c-6.84,-29.39 -35.14,-63.74 -39.95,-84.34zm142.04 0l-8.87 0c-6.84,29.39 -35.15,63.73 -39.95,84.34l88.79 0c-5.71,-24.52 -32.56,-52.59 -39.96,-84.34zm-372.86 84.34c-9.73,-18.38 -39.61,-66.42 -44.39,-84.34 -11.79,8.64 -13.19,17.62 -20.66,32.6 -29.03,58.22 -52.02,51.74 65.05,51.74zm506.04 -84.34c-15.35,11.25 -38.09,64.04 -48.84,84.34 52.65,0 91.79,8.84 85,-13.07 -7.17,-23.14 -30.24,-45.76 -36.17,-71.27zm106.53 -35.51l-88.78 0c3.92,16.81 33.04,71.59 44.39,79.9 3.27,-14.03 13.59,-28.56 21.32,-40.82l17.72 -26.67c3.87,-7.17 4.05,-9.93 5.35,-12.41zm-679.14 0l-88.78 0c11.09,20.98 38.94,55.07 44.39,75.46 18.13,-13.29 32.86,-53.67 44.39,-75.46zm142.04 0l-102.09 0c1.82,7.84 37.96,82.97 53.26,93.22 16.58,-31.33 32.5,-62.37 48.83,-93.22zm133.16 0l-93.22 0c4.14,17.77 37.1,80.19 48.83,88.78l44.39 -88.78zm142.04 0l-102.09 0c5.58,23.94 36.9,61.13 44.39,93.22l57.7 -93.22zm133.16 0l-93.22 0c4.58,19.66 35.78,79.22 48.83,88.78 4.01,-17.21 33.24,-67.69 44.39,-88.78zm-279.64 -270.77c0,34.3 -5.3,40.14 -17.88,62.03 -59.46,103.49 -182.9,106.11 -292.87,106.67 -29.86,0.16 -47.15,-2.6 -75.05,-4.83 -23.8,-1.91 -44.66,-8.51 -71.39,-8.51 19.36,28.91 49.93,48.42 66.58,79.89l794.69 0.14c53.79,0.65 29.05,-0.99 76.42,-47.86 11.32,-11.2 21.56,-19.61 29.97,-32.17 -69.77,0 -188.07,30.99 -300.14,2.75 -81,-20.42 -172.67,-91.1 -157.06,-158.11 17.03,12.48 26.81,47.65 109.68,76.75 67.32,23.65 178.51,29.45 254.33,25.36l86.88 -6.34c45.09,-6.79 139.59,-15.11 174.99,1.87 -9.82,14.67 -25.06,20.26 -40.87,30.17 -222.95,139.75 -157.13,375.76 -362.48,449.81 -160.68,57.94 -332.37,67.47 -495.93,2.07 -125.21,-50.07 -151.33,-132.61 -197.72,-246.17 -34.02,-83.28 -92.67,-156.65 -168.28,-204.58 -13.94,-8.83 -35.06,-18.85 -44.17,-31.29 22.9,-10.98 50.86,-8.87 84.44,-8.98l87.45 5.76c53.68,7.19 119.99,7.9 183.36,7.81 218.41,-0.31 251.44,-93.71 275.06,-102.25z"/>
   <path class="fil0" d="M679.14 6942.32zm0 0zm0 0c37.21,-24.93 82.12,-79.39 43.69,-136.92 -13.15,-19.68 -34.14,-37.93 -51.47,-55.05 -26.29,-25.99 -34.26,-27.3 -23.29,-74.36l8.87 0c5.56,66.81 132.71,113.28 123.52,189.7 -4.69,39.04 -34.28,73.93 -58.02,97.73 -21.95,22.02 -29.35,34.75 -92.22,27.83 -17.12,-1.89 -14.97,-3.79 -26.72,-13.23 -58.89,-47.26 -131.99,-110.16 -94.47,-196.93 24.75,-57.22 115.22,-121 121.29,-193.88 35.47,0 31.06,-8.57 31.06,57.7 -25.14,0.56 -10.35,1.99 -59.62,64.67 -64.22,81.71 -93.28,136.33 37.44,223.86 0.61,-27.36 10.42,-19.66 -4.95,-70.54 -14.17,-46.94 -3.01,-29.3 0.51,-71.5l8.87 0c0,28.01 12.04,50.25 20.95,72.26 13.22,32.66 14.57,34.43 14.57,78.66z"/>
   <path class="fil0" d="M1819.91 5286.63c-22.29,0 -36.86,-7.87 -53.26,0l-11.12 -6.63c-55.54,-35.7 -141.96,-120.17 -111.55,-195.92 26.21,-65.29 94.63,-108.36 117.62,-175.35 6.4,-18.64 0.69,-20.76 13.92,-30.47 6.05,25.94 32.61,34.44 -13.28,97.7 -33.22,45.78 -109.24,107.6 -57.86,182.07 13.5,19.56 52.29,60.24 75.58,66.46 0,-39.27 0.52,-42.87 -8.06,-71.87 -9.48,-32.12 -2.95,-41.93 3.62,-70.18 6.23,7.16 4.61,4.45 8.05,14.14 2.11,5.92 3.62,15.38 5.26,21.38 9.03,33.07 21.82,43.31 27.01,75.44 4.06,25.12 -0.36,17.58 -0.36,44.39 43.16,-28.9 85.7,-85.27 44.52,-142.18 -14.71,-20.32 -35.87,-38.05 -54.6,-56.38 -10.52,-10.3 -17.14,-15.59 -22.15,-31.53 -5.07,-16.15 -3.44,-30.81 10.03,-40.68 15.36,65.93 94.81,98.62 118.71,152.06 26.26,58.73 -41.6,145.49 -88.97,166.2 -0.66,0.3 -2.15,0.74 -3.1,1.33z"/>
   <path class="fil0" d="M719.09 4208c0,-32.73 -25.88,-71.02 -57.71,-71.02 -43.15,0 -84.34,5.7 -84.34,75.46 0,67.91 106.47,87.18 134.56,23.58 1.6,-3.61 7.49,-25.58 7.49,-28.03zm57.7 -4.44c0,38.98 -16.37,67.67 -34.71,89.58 -7.77,9.29 -24.32,20.57 -35.5,26.64 -83.97,45.49 -187.25,-22.03 -187.25,-102.91 0,-47.57 4.82,-69.77 40.91,-105.56 34.7,-34.41 89.56,-45.56 138.14,-24.66 44.49,19.13 78.4,67.7 78.4,116.91z"/>
   <path class="fil0" d="M1793.28 2814.21c-91.98,0 -100.08,142.05 4.44,142.05 14,0 37.78,-13.12 45.67,-20.92 40.18,-39.79 15.51,-121.13 -50.1,-121.13zm128.73 71.03c0,111.71 -135.89,170.88 -218.71,94.43 -77.65,-71.66 -36.02,-223.16 89.98,-223.16 68.91,0 128.73,60.68 128.73,128.73z"/>
   <path class="fil0" d="M719.09 1198.49c0,-35.66 -31.82,-71.03 -71.02,-71.03 -97.42,0 -90.61,142.04 -4.44,142.04 41.14,0 75.46,-31.24 75.46,-71.02zm57.7 -4.44c0,142.17 -185.72,183.52 -245.85,59.41 -34.1,-70.37 2.03,-183.7 126,-183.7 59.59,0 119.85,63.76 119.85,124.29z"/>
   <path class="fil0" d="M661.38 3963.87c27.45,7.32 33.42,41.81 14.32,63.14 -22.2,24.8 -67.59,9.86 -67.59,-27.63 0,-28.66 22.2,-26.71 22.2,-44.39l0 -48.83c39.65,0 31.06,2.64 31.06,57.7z"/>
   <path class="fil0" d="M1806.6 2645.54c32.77,8.75 32.17,47.34 7.82,65.74 -48.15,36.39 -88.43,-52.52 -38.89,-65.74l0 -44.39 31.07 0 0 44.39z"/>
   <path class="fil0" d="M1806.6 3138.25l0 31.06 -31.07 0 0 -44.39c-28.07,-7.5 -42.5,-71.02 26.64,-71.02 15.82,0 30.7,24.11 29.89,39.44 -1.33,25.63 -25.45,27.88 -25.45,44.89z"/>
   <path class="fil0" d="M688.02 4412.19c0,47.1 -79.9,56.78 -79.9,0 0,-53.02 79.9,-51.83 79.9,0z"/>
   <path class="fil0" d="M608.11 994.3c0,-37.63 24.74,-39.95 48.83,-39.95 23.15,0 44.18,43.58 14.77,68.15 -23.51,19.62 -63.6,6.5 -63.6,-28.2z"/>
   <path class="fil0" d="M648.07 1442.62c-77.25,0 -27.02,-118.89 25.95,-65.92 25.36,25.36 9.8,65.92 -25.95,65.92z"/>
   <path class="fil0" d="M661.38 741.29c0,54.06 5.29,48.83 -31.06,48.83l0 -62.15c21.59,0 31.06,-3 31.06,13.33z"/>
   <path class="fil0" d="M661.38 3266.97c0,54.07 5.29,48.83 -31.06,48.83l0 -62.15c21.59,0 31.06,-3 31.06,13.32z"/>
   <path class="fil0" d="M661.38 5135.72c0,54.07 5.29,48.83 -31.06,48.83l0 -62.14c21.59,0 31.06,-3.01 31.06,13.31z"/>
   <path class="fil0" d="M661.38 6192.15c0,54.07 5.29,48.83 -31.06,48.83l0 -62.14c21.59,0 31.06,-3 31.06,13.31z"/>
   <path class="fil0" d="M661.38 4647.44c0,54.07 5.29,48.83 -31.06,48.83l0 -62.14c21.59,0 31.06,-3.01 31.06,13.31z"/>
   <path class="fil0" d="M661.38 3511.11c0,54.06 5.29,48.83 -31.06,48.83l0 -62.14c21.59,0 31.06,-3.01 31.06,13.31z"/>
   <path class="fil0" d="M661.38 2778.71c0,54.06 5.29,48.83 -31.06,48.83l0 -62.15c21.59,0 31.06,-3 31.06,13.32z"/>
   <path class="fil0" d="M661.38 2290.43c0,54.06 5.29,48.83 -31.06,48.83l0 -62.14c21.59,0 31.06,-3.01 31.06,13.31z"/>
   <path class="fil0" d="M661.38 253.02c0,54.06 5.29,48.83 -31.06,48.83l0 -62.14c21.59,0 31.06,-3.01 31.06,13.31z"/>
   <path class="fil0" d="M661.38 497.15c0,54.07 5.29,48.83 -31.06,48.83l0 -62.14c21.59,0 31.06,-3 31.06,13.31z"/>
   <path class="fil0" d="M661.38 2534.57c0,54.07 5.29,48.84 -31.06,48.84l0 -62.15c21.59,0 31.06,-3 31.06,13.31z"/>
   <path class="fil0" d="M661.38 3755.24c0,54.07 5.29,48.84 -31.06,48.84l0 -62.15c21.59,0 31.06,-3 31.06,13.31z"/>
   <path class="fil0" d="M1806.6 790.12c-36.36,0 -31.07,5.23 -31.07,-48.83 0,-16.32 9.47,-13.33 31.07,-13.33l0 62.15z"/>
   <path class="fil0" d="M1806.6 3333.56c-36.36,0 -31.07,5.24 -31.07,-48.83 0,-16.33 9.47,-13.31 31.07,-13.31l0 62.14z"/>
   <path class="fil0" d="M1806.6 3577.69c-36.36,0 -31.07,5.24 -31.07,-48.83 0,-16.31 9.47,-13.31 31.07,-13.31l0 62.14z"/>
   <path class="fil0" d="M1806.6 4065.96c-36.36,0 -31.07,5.24 -31.07,-48.83 0,-16.32 9.47,-13.31 31.07,-13.31l0 62.14z"/>
   <path class="fil0" d="M1806.6 1766.65c-36.36,0 -31.07,5.24 -31.07,-48.83 0,-16.32 9.47,-13.32 31.07,-13.32l0 62.14z"/>
   <path class="fil0" d="M1806.6 1522.52c-36.36,0 -31.07,5.23 -31.07,-48.83 0,-16.32 9.47,-13.31 31.07,-13.31l0 62.14z"/>
   <path class="fil0" d="M1806.6 1034.25c-36.36,0 -31.07,5.24 -31.07,-48.83 0,-16.33 9.47,-13.32 31.07,-13.32l0 62.14z"/>
   <path class="fil0" d="M1806.6 301.84c-36.36,0 -31.07,5.23 -31.07,-48.83 0,-16.32 9.47,-13.31 31.07,-13.31l0 62.14z"/>
   <path class="fil0" d="M1806.6 545.97c-36.36,0 -31.07,5.24 -31.07,-48.83 0,-16.32 9.47,-13.31 31.07,-13.31l0 62.14z"/>
   <path class="fil0" d="M661.38 4891.57c0,54.07 5.29,48.83 -31.06,48.83l0 -62.14c21.59,0 31.06,-3 31.06,13.31z"/>
   <path class="fil0" d="M661.38 3022.84c0,54.07 5.29,48.83 -31.06,48.83l0 -62.14c21.59,0 31.06,-3.01 31.06,13.32z"/>
   <path class="fil0" d="M661.38 6436.29c0,54.06 5.29,48.83 -31.06,48.83l0 -62.15c21.59,0 31.06,-3 31.06,13.32z"/>
   <path class="fil0" d="M1806.6 4310.1c-36.36,0 -31.07,5.23 -31.07,-48.83 0,-16.32 9.47,-13.32 31.07,-13.32l0 62.15z"/>
   <path class="fil0" d="M1806.6 1278.38c-36.36,0 -31.07,5.24 -31.07,-48.83 0,-16.32 9.47,-13.31 31.07,-13.31l0 62.14z"/>
   <path class="fil0" d="M1806.6 3821.83c-36.36,0 -31.07,5.23 -31.07,-48.83 0,-16.32 9.47,-13.32 31.07,-13.32l0 62.15z"/>
   <polygon class="fil0" points="1806.6,217.51 1775.53,217.51 1775.53,159.8 1806.6,159.8 "/>
   <polygon class="fil0" points="1806.6,3249.22 1775.53,3249.22 1775.53,3191.52 1806.6,3191.52 "/>
   <polygon class="fil0" points="1806.6,2334.82 1775.53,2334.82 1775.53,2277.12 1806.6,2277.12 "/>
   <polygon class="fil0" points="1806.6,4793.92 1775.53,4793.92 1775.53,4736.22 1806.6,4736.22 "/>
   <polygon class="fil0" points="1806.6,3981.62 1775.53,3981.62 1775.53,3923.92 1806.6,3923.92 "/>
   <polygon class="fil0" points="1806.6,1114.15 1775.53,1114.15 1775.53,1056.45 1806.6,1056.45 "/>
   <polygon class="fil0" points="1806.6,1438.18 1775.53,1438.18 1775.53,1380.48 1806.6,1380.48 "/>
   <polygon class="fil0" points="1806.6,4469.89 1775.53,4469.89 1775.53,4412.19 1806.6,4412.19 "/>
   <polygon class="fil0" points="1806.6,3657.59 1775.53,3657.59 1775.53,3599.89 1806.6,3599.89 "/>
   <polygon class="fil0" points="1806.6,137.6 1775.53,137.6 1775.53,79.9 1806.6,79.9 "/>
   <polygon class="fil0" points="1806.6,381.75 1775.53,381.75 1775.53,324.03 1806.6,324.03 "/>
   <polygon class="fil0" points="1806.6,461.63 1775.53,461.63 1775.53,403.93 1806.6,403.93 "/>
   <polygon class="fil0" points="1806.6,625.88 1775.53,625.88 1775.53,568.17 1806.6,568.17 "/>
   <polygon class="fil0" points="1806.6,870.01 1775.53,870.01 1775.53,812.3 1806.6,812.3 "/>
   <polygon class="fil0" points="1806.6,949.91 1775.53,949.91 1775.53,892.21 1806.6,892.21 "/>
   <polygon class="fil0" points="1806.6,1194.05 1775.53,1194.05 1775.53,1136.33 1806.6,1136.33 "/>
   <polygon class="fil0" points="1806.6,1358.28 1775.53,1358.28 1775.53,1300.58 1806.6,1300.58 "/>
   <polygon class="fil0" points="1806.6,1602.42 1775.53,1602.42 1775.53,1544.71 1806.6,1544.71 "/>
   <polygon class="fil0" points="1806.6,1682.31 1775.53,1682.31 1775.53,1624.61 1806.6,1624.61 "/>
   <polygon class="fil0" points="1806.6,1846.55 1775.53,1846.55 1775.53,1788.85 1806.6,1788.85 "/>
   <polygon class="fil0" points="1806.6,1926.45 1775.53,1926.45 1775.53,1868.75 1806.6,1868.75 "/>
   <polygon class="fil0" points="1806.6,2090.68 1775.53,2090.68 1775.53,2032.98 1806.6,2032.98 "/>
   <polygon class="fil0" points="1806.6,2170.58 1775.53,2170.58 1775.53,2112.88 1806.6,2112.88 "/>
   <polygon class="fil0" points="1806.6,2414.73 1775.53,2414.73 1775.53,2357.01 1806.6,2357.01 "/>
   <polygon class="fil0" points="1806.6,2494.61 1775.53,2494.61 1775.53,2436.91 1806.6,2436.91 "/>
   <polygon class="fil0" points="1806.6,2578.95 1775.53,2578.95 1775.53,2521.25 1806.6,2521.25 "/>
   <polygon class="fil0" points="1806.6,705.78 1775.53,705.78 1775.53,648.08 1806.6,648.08 "/>
   <polygon class="fil0" points="1806.6,3413.46 1775.53,3413.46 1775.53,3355.75 1806.6,3355.75 "/>
   <polygon class="fil0" points="1806.6,3493.36 1775.53,3493.36 1775.53,3435.65 1806.6,3435.65 "/>
   <polygon class="fil0" points="1806.6,3737.49 1775.53,3737.49 1775.53,3679.79 1806.6,3679.79 "/>
   <polygon class="fil0" points="1806.6,3901.73 1775.53,3901.73 1775.53,3844.02 1806.6,3844.02 "/>
   <polygon class="fil0" points="1806.6,4145.86 1775.53,4145.86 1775.53,4088.16 1806.6,4088.16 "/>
   <polygon class="fil0" points="1806.6,4225.76 1775.53,4225.76 1775.53,4168.05 1806.6,4168.05 "/>
   <polygon class="fil0" points="1806.6,4389.99 1775.53,4389.99 1775.53,4332.29 1806.6,4332.29 "/>
   <polygon class="fil0" points="1806.6,4634.13 1775.53,4634.13 1775.53,4576.42 1806.6,4576.42 "/>
   <polygon class="fil0" points="1806.6,4714.03 1775.53,4714.03 1775.53,4656.32 1806.6,4656.32 "/>
   <path class="fil0" d="M661.38 3187.08l0 44.39 -31.06 0 0 -57.71 17.75 0c10.23,0 13.31,3.09 13.31,13.32z"/>
   <path class="fil0" d="M661.38 5379.85l0 44.39 -31.06 0 0 -57.7 17.75 0c10.23,0 13.31,3.09 13.31,13.31z"/>
   <path class="fil0" d="M661.38 2081.81c0,10.23 -3.08,13.33 -13.31,13.33l-17.75 0 0 -57.71 31.06 0 0 44.39z"/>
   <path class="fil0" d="M661.38 1966.4l0 44.39 -31.06 0 0 -57.71 17.75 0c10.23,0 13.31,3.09 13.31,13.33z"/>
   <path class="fil0" d="M1806.6 2250.48l-31.07 0 0 -44.39c0,-10.23 3.09,-13.32 13.31,-13.32l17.76 0 0 57.7z"/>
   <path class="fil0" d="M661.38 4762.86c0,10.22 -3.08,13.31 -13.31,13.31l-17.75 0 0 -57.7 31.06 0 0 44.39z"/>
   <path class="fil0" d="M661.38 173.12l0 44.39 -31.06 0 0 -57.71 17.75 0c10.23,0 13.31,3.08 13.31,13.32z"/>
   <path class="fil0" d="M661.38 5868.12l0 44.39 -31.06 0 0 -57.7 17.75 0c10.23,0 13.31,3.09 13.31,13.31z"/>
   <path class="fil0" d="M661.38 5983.54c0,10.22 -3.08,13.31 -13.31,13.31l-17.75 0 0 -57.7 31.06 0 0 44.39z"/>
   <path class="fil0" d="M661.38 5251.12c0,10.24 -3.08,13.33 -13.31,13.33l-17.75 0 0 -57.71 31.06 0 0 44.39z"/>
   <path class="fil0" d="M661.38 3138.25c0,10.22 -3.08,13.31 -13.31,13.31l-17.75 0 0 -57.7 31.06 0 0 44.39z"/>
   <path class="fil0" d="M661.38 3382.38c0,10.23 -3.08,13.31 -13.31,13.31l-17.75 0 0 -57.7 31.06 0 0 44.39z"/>
   <path class="fil0" d="M661.38 5006.99c0,10.23 -3.08,13.31 -13.31,13.31l-17.75 0 0 -57.7 31.06 0 0 44.39z"/>
   <path class="fil0" d="M661.38 3870.65c0,10.23 -3.08,13.31 -13.31,13.31l-17.75 0 0 -57.7 31.06 0 0 44.39z"/>
   <path class="fil0" d="M661.38 4518.72c0,10.23 -3.08,13.31 -13.31,13.31l-17.75 0 0 -57.7 31.06 0 0 44.39z"/>
   <path class="fil0" d="M661.38 5739.39c0,10.23 -3.08,13.31 -13.31,13.31l-17.75 0 0 -57.7 31.06 0 0 44.39z"/>
   <path class="fil0" d="M661.38 905.52l0 44.39 -31.06 0 0 -57.7 17.75 0c10.23,0 13.31,3.09 13.31,13.31z"/>
   <path class="fil0" d="M661.38 417.24l0 44.39 -31.06 0 0 -57.7 17.75 0c10.23,0 13.31,3.09 13.31,13.31z"/>
   <path class="fil0" d="M661.38 2698.81l0 44.39 -31.06 0 0 -57.7 17.75 0c10.23,0 13.31,3.08 13.31,13.31z"/>
   <path class="fil0" d="M661.38 5623.99l0 44.39 -31.06 0 0 -57.71 17.75 0c10.23,0 13.31,3.09 13.31,13.33z"/>
   <path class="fil0" d="M661.38 2942.94l0 44.39 -31.06 0 0 -57.7 17.75 0c10.23,0 13.31,3.09 13.31,13.31z"/>
   <path class="fil0" d="M661.38 44.39c0,10.24 -3.08,13.31 -13.31,13.31l-17.75 0 0 -57.7 31.06 0 0 44.39z"/>
   <path class="fil0" d="M661.38 6112.25l0 44.39 -31.06 0 0 -57.7 17.75 0c10.23,0 13.31,3.09 13.31,13.31z"/>
   <path class="fil0" d="M661.38 1837.67c0,10.23 -3.08,13.32 -13.31,13.32l-17.75 0 0 -57.7 31.06 0 0 44.39z"/>
   <path class="fil0" d="M661.38 1722.26l0 44.39 -31.06 0 0 -57.7 17.75 0c10.23,0 13.31,3.09 13.31,13.31z"/>
   <path class="fil0" d="M1806.6 2006.35l-31.07 0 0 -44.39c0,-10.23 3.09,-13.32 13.31,-13.32l17.76 0 0 57.71z"/>
   <path class="fil0" d="M661.38 1478.13l0 44.39 -31.06 0 0 -57.7 17.75 0c10.23,0 13.31,3.08 13.31,13.31z"/>
   <path class="fil0" d="M1806.6 57.7l-17.76 0c-10.22,0 -13.31,-3.08 -13.31,-13.31l0 -44.39 31.07 0 0 57.7z"/>
   <path class="fil0" d="M1806.6 4549.79l-31.07 0 0 -44.39c0,-10.23 3.09,-13.31 13.31,-13.31l17.76 0 0 57.7z"/>
   <path class="fil0" d="M661.38 2210.53l0 44.39 -31.06 0 0 -57.7 17.75 0c10.23,0 13.31,3.08 13.31,13.32z"/>
   <path class="fil0" d="M661.38 6356.39l0 44.39 -31.06 0 0 -57.7 17.75 0c10.23,0 13.31,3.08 13.31,13.31z"/>
   <path class="fil0" d="M661.38 1593.53c0,10.24 -3.08,13.33 -13.31,13.33l-17.75 0 0 -57.7 31.06 0 0 44.38z"/>
   <path class="fil0" d="M661.38 3626.51c0,10.24 -3.08,13.33 -13.31,13.33l-17.75 0 0 -57.7 31.06 0 0 44.38z"/>
   <path class="fil0" d="M661.38 2454.68l0 44.38 -31.06 0 0 -57.7 17.75 0c10.23,0 13.31,3.09 13.31,13.33z"/>
   <path class="fil0" d="M661.38 5495.26c0,10.22 -3.08,13.31 -13.31,13.31l-17.75 0 0 -57.7 31.06 0 0 44.39z"/>
   <path class="fil0" d="M661.38 661.39l0 44.39 -31.06 0 0 -57.7 17.75 0c10.23,0 13.31,3.08 13.31,13.31z"/>
   <path class="fil0" d="M661.38 2863.05c0,49.02 4.84,44.38 -31.06,44.38l0 -57.71c21.59,0 31.06,-3 31.06,13.33z"/>
   <path class="fil0" d="M661.38 5055.82c0,49.03 4.84,44.39 -31.06,44.39l0 -57.7c21.59,0 31.06,-3.01 31.06,13.32z"/>
   <path class="fil0" d="M661.38 6276.49c0,49.03 4.84,44.39 -31.06,44.39l0 -57.7c21.59,0 31.06,-3.01 31.06,13.31z"/>
   <path class="fil0" d="M661.38 1642.37c0,49.02 4.84,44.39 -31.06,44.39l0 -57.72c21.59,0 31.06,-3 31.06,13.33z"/>
   <path class="fil0" d="M661.38 5788.22c0,49.03 4.84,44.39 -31.06,44.39l0 -57.7c21.59,0 31.06,-3 31.06,13.31z"/>
   <path class="fil0" d="M661.38 4567.55c0,49.03 4.84,44.39 -31.06,44.39l0 -57.7c21.59,0 31.06,-3 31.06,13.31z"/>
   <path class="fil0" d="M661.38 1886.5c0,49.03 4.84,44.39 -31.06,44.39l0 -57.7c21.59,0 31.06,-3.01 31.06,13.31z"/>
   <path class="fil0" d="M661.38 2374.77c0,49.03 4.84,44.39 -31.06,44.39l0 -57.7c21.59,0 31.06,-3.01 31.06,13.31z"/>
   <path class="fil0" d="M661.38 581.49c0,49.03 4.84,44.39 -31.06,44.39l0 -57.71c21.59,0 31.06,-3.01 31.06,13.32z"/>
   <path class="fil0" d="M661.38 5544.09c0,49.03 4.84,44.39 -31.06,44.39l0 -57.7c21.59,0 31.06,-3.01 31.06,13.31z"/>
   <path class="fil0" d="M661.38 825.62c0,49.03 4.84,44.39 -31.06,44.39l0 -57.7c21.59,0 31.06,-3 31.06,13.31z"/>
   <path class="fil0" d="M661.38 2618.91c0,49.03 4.84,44.39 -31.06,44.39l0 -57.7c21.59,0 31.06,-3 31.06,13.32z"/>
   <path class="fil0" d="M661.38 93.22c0,49.03 4.84,44.39 -31.06,44.39l0 -57.7c21.59,0 31.06,-3 31.06,13.32z"/>
   <path class="fil0" d="M661.38 6032.36c0,49.02 4.84,44.39 -31.06,44.39l0 -57.72c21.59,0 31.06,-3 31.06,13.33z"/>
   <path class="fil0" d="M661.38 4811.69c0,49.02 4.84,44.39 -31.06,44.39l0 -57.71c21.59,0 31.06,-3 31.06,13.32z"/>
   <path class="fil0" d="M661.38 3431.21c0,49.03 4.84,44.38 -31.06,44.38l0 -57.7c21.59,0 31.06,-3 31.06,13.32z"/>
   <path class="fil0" d="M661.38 5299.95c0,49.03 4.84,44.39 -31.06,44.39l0 -57.7c21.59,0 31.06,-3 31.06,13.32z"/>
   <path class="fil0" d="M661.38 6520.62c0,49.03 4.84,44.39 -31.06,44.39l0 -57.7c21.59,0 31.06,-3 31.06,13.31z"/>
   <path class="fil0" d="M661.38 3675.35c0,49.02 4.84,44.38 -31.06,44.38l0 -57.7c21.59,0 31.06,-3 31.06,13.32z"/>
   <path class="fil0" d="M661.38 337.36c0,49.02 4.84,44.39 -31.06,44.39l0 -57.71c21.59,0 31.06,-3 31.06,13.32z"/>
   <path class="fil0" d="M661.38 2130.63c0,49.03 4.84,44.39 -31.06,44.39l0 -57.7c21.59,0 31.06,-3 31.06,13.31z"/>
   <path class="fil0" d="M1806.6 4851.64l-17.76 0c-10.22,0 -13.31,-3.09 -13.31,-13.32l0 -17.75 31.07 0 0 31.07z"/>
  </g>
 </g>
</svg>
