<?xml version="1.0" encoding="UTF-8"?>
<!DOCTYPE svg PUBLIC "-//W3C//DTD SVG 1.1//EN" "http://www.w3.org/Graphics/SVG/1.1/DTD/svg11.dtd">
<!-- Creator: CorelDRAW -->
<svg xmlns="http://www.w3.org/2000/svg" xml:space="preserve" width="3.36052in" height="10.4664in" version="1.1" style="shape-rendering:geometricPrecision; text-rendering:geometricPrecision; image-rendering:optimizeQuality; fill-rule:evenodd; clip-rule:evenodd"
viewBox="0 0 2697.67 8401.99"
 xmlns:xlink="http://www.w3.org/1999/xlink"
 xmlns:xodm="http://www.corel.com/coreldraw/odm/2003">
 <defs>
  <style type="text/css">
   <![CDATA[
    .fil0 {fill:#E01D1D}
   ]]>
  </style>
 </defs>
 <g id="Layer_x0020_1">
  <metadata id="CorelCorpID_0Corel-Layer"/>
  <g id="_2453309243312">
   <path class="fil0" d="M1654.83 8181.15l641.37 0c-10.93,40.93 -72.04,80.34 -107.62,98.01 -103.75,51.55 -317.56,43.42 -421.99,0.76 -50.18,-20.5 -83.91,-57.18 -111.77,-98.77zm621.79 -127.29c18.76,5.01 13.62,7.37 29.38,39.15 7.53,15.18 17.9,28.9 19.58,48.96l-93.02 0c12.65,-23.9 37.62,-60.5 44.06,-88.12zm-146.88 -4.9c8,34.34 35.73,57.25 44.06,93.01l-93.02 0c3.87,-16.6 12.84,-32.2 21.65,-46.89l27.32 -46.12zm-146.88 0c7.55,32.41 38.77,70.29 44.07,93.01l-97.92 0c25.09,-37.47 28.81,-64.2 53.85,-93.01zm-161.57 0l13.25 21.01c12.3,21.68 30.01,47.59 35.71,72l-93.02 0c8,-34.34 35.73,-57.25 44.06,-93.01zm-141.98 0c8.15,35.01 37.76,65.98 44.06,93.01l-93.02 0 33.24 -69.58c1.9,-3.16 5.14,-8.43 7.53,-12.05 6.14,-9.2 1.79,-4.02 8.2,-11.38zm470 -39.17l112.61 0c-5.52,20.69 -49.15,87.52 -53.86,107.71 -19.86,-14.56 -46.7,-80.76 -58.75,-107.71zm-303.55 0l112.62 0 -53.87 107.71c-15.7,-11.5 -20.45,-33.45 -31.44,-51.79l-27.31 -55.92zm-146.88 0l102.82 0c-8.15,35.02 -42.62,75.64 -48.96,102.82l-53.86 -102.82zm-146.88 0l102.82 0c-8,34.35 -35.74,57.27 -44.07,93.02l-58.75 -93.02zm749.08 0l102.81 0c-9.24,17.47 -17.69,28.24 -28.43,45 -10.07,15.71 -16.51,33 -30.32,43.13 -5.95,-25.56 -31.74,-64.85 -44.06,-88.13zm-303.55 0l107.71 0c-9.04,38.8 -39.91,64.01 -48.96,102.82 -19.15,-22.03 -39.8,-74.53 -58.75,-102.82zm-739.29 -190.94c5.4,20.22 50.3,39.64 87.51,69.17 161.76,128.44 154.06,294.11 244.1,387.48 166.27,172.41 620.23,163.24 771.34,4.92 77.72,-81.44 82.29,-194.5 169.3,-310.51 84.92,-113.24 159.33,-121.72 167.17,-151.06 -44.92,-3.74 -20.99,-15.67 -89.46,-6.24 -25.4,3.5 -72.75,5.88 -96.61,6.21 -39.06,0.53 -164.36,12.24 -193.74,7.76 -60.33,-9.2 -104.05,-0.13 -180.28,-25.36 -40.92,-13.56 -110.46,-47.78 -120.44,-85.19l-9.8 0c-12.4,53.28 51.94,113.39 90.97,139.14 80.14,52.89 219.74,51.29 319.53,41.24 29.83,-3.01 69.17,-11.46 98.69,-13.92 -16.28,24.32 -46.95,45.65 -64.24,67.96 -7.11,9.17 -9.21,20.17 -23.89,20.17l-900.86 0c-13.97,0 -18.52,-11.22 -24.61,-19.44 -7.89,-10.64 -10.49,-13.4 -20.63,-23.45 -15.54,-15.37 -31.21,-27.79 -42.88,-45.25 27.24,2.27 67.8,10.07 94.36,13.35 149.5,18.52 335.06,12.1 406.85,-134.06 12.76,-25.98 10.16,-19.4 7.96,-45.75l-9.79 0c-9.76,36.59 -79.77,73.09 -120.58,85.04 -95.7,28.04 -109.09,14.66 -180.14,25.5 -25.2,3.84 -258.09,-9.53 -290.36,-13.97 -42.11,-5.81 -50.55,-2.83 -89.46,6.24z"/>
   <path class="fil0" d="M724.61 6433.29c-100.71,0 -199.08,-14.14 -270.88,-71.84 -18.27,-14.68 -46.03,-41.94 -52.26,-65.25l641.37 0c-44.06,83.3 -122.01,112.2 -210.46,127.36 -26.65,4.58 -78.27,9.73 -107.77,9.73zm141.99 -264.38c20.91,15.32 40.3,67.43 53.85,93.03l-97.92 0c8.33,-35.76 36.06,-58.67 44.07,-93.03zm-146.88 0c10.7,7.85 21.86,31.7 29.16,44.28 9.07,15.64 16.24,32.78 24.7,48.75l-97.92 0c7.54,-32.41 38.76,-70.3 44.06,-93.03zm-156.67 0l9.79 0c7.54,32.41 38.77,70.29 44.07,93.03l-97.93 0c6.3,-27.05 35.91,-58 44.08,-93.03zm411.26 93.03c10.73,-20.28 43.69,-73.26 48.96,-93.03 13.01,9.54 14.54,19.44 22.79,35.96 32.02,64.22 57.38,57.07 -71.75,57.07zm-558.15 -93.03c16.93,12.4 42.01,70.63 53.87,93.03 -58.08,0 -101.24,9.75 -93.76,-14.42 7.91,-25.53 33.35,-50.47 39.89,-78.61zm-117.5 -39.17l97.92 0c-4.33,18.54 -36.45,78.96 -48.96,88.13 -3.6,-15.47 -14.99,-31.5 -23.52,-45.03l-19.54 -29.42c-4.27,-7.91 -4.47,-10.96 -5.9,-13.68zm749.08 0l97.92 0c-12.24,23.14 -42.95,60.74 -48.96,83.24 -20,-14.66 -36.24,-59.19 -48.96,-83.24zm-156.67 0l112.61 0c-2,8.65 -41.87,91.52 -58.75,102.82 -18.29,-34.55 -35.85,-68.79 -53.86,-102.82zm-146.88 0l102.82 0c-4.57,19.6 -40.92,88.45 -53.86,97.92l-48.96 -97.92zm-156.67 0l112.6 0c-6.15,26.4 -40.7,67.43 -48.96,102.82l-63.65 -102.82zm-146.88 0l102.82 0c-5.05,21.69 -39.46,87.38 -53.85,97.92 -4.43,-18.98 -36.66,-74.66 -48.96,-97.92zm308.44 -298.65c0,37.83 5.84,44.27 19.72,68.41 65.59,114.15 201.74,117.04 323.04,117.66 32.93,0.18 52.01,-2.86 82.78,-5.33 26.25,-2.1 49.26,-9.38 78.75,-9.38 -21.35,31.89 -55.07,53.41 -73.43,88.12l-876.53 0.15c-59.33,0.72 -32.05,-1.09 -84.29,-52.79 -12.49,-12.35 -23.78,-21.63 -33.06,-35.48 76.96,0 207.44,34.19 331.05,3.03 89.34,-22.52 190.45,-100.48 173.23,-174.4 -18.78,13.76 -29.57,52.56 -120.98,84.66 -74.25,26.08 -196.89,32.49 -280.52,27.97l-95.83 -6.99c-49.73,-7.48 -153.96,-16.67 -193.01,2.07 10.83,16.18 27.64,22.34 45.08,33.27 245.91,154.14 173.32,414.46 399.82,496.13 177.23,63.91 366.6,74.42 547,2.28 138.11,-55.22 166.91,-146.27 218.08,-271.52 37.52,-91.86 102.22,-172.78 185.61,-225.65 15.38,-9.74 38.67,-20.8 48.72,-34.52 -25.26,-12.11 -56.1,-9.78 -93.14,-9.9l-96.46 6.36c-59.2,7.94 -132.35,8.71 -202.24,8.62 -240.91,-0.34 -277.34,-103.36 -303.38,-112.78z"/>
   <path class="fil0" d="M1948.59 7657.28zm0 0zm0 0c-41.04,-27.5 -90.58,-87.56 -48.19,-151.02 14.51,-21.71 37.65,-41.83 56.77,-60.72 29,-28.67 37.79,-30.11 25.69,-82.02l-9.79 0c-6.14,73.69 -146.38,124.94 -136.24,209.23 5.17,43.06 37.81,81.55 64,107.8 24.21,24.28 32.37,38.33 101.72,30.7 18.88,-2.08 16.51,-4.18 29.47,-14.59 64.95,-52.13 145.59,-121.51 104.2,-217.21 -27.3,-63.11 -127.09,-133.46 -133.78,-213.84 -39.12,0 -34.26,-9.45 -34.26,63.64 27.73,0.62 11.42,2.19 65.76,71.33 70.84,90.12 102.89,150.36 -41.29,246.92 -0.67,-30.18 -11.5,-21.68 5.45,-77.81 15.63,-51.77 3.32,-32.31 -0.56,-78.86l-9.79 0c0,30.9 -13.28,55.42 -23.1,79.7 -14.58,36.03 -16.07,37.98 -16.07,86.76z"/>
   <path class="fil0" d="M690.33 5831.08c24.59,0 40.65,-8.68 58.75,0l12.26 -7.32c61.26,-39.37 156.58,-132.55 123.04,-216.1 -28.91,-72.01 -104.37,-119.52 -129.74,-193.41 -7.06,-20.56 -0.76,-22.9 -15.36,-33.61 -6.67,28.61 -35.97,37.99 14.65,107.76 36.64,50.5 120.49,118.68 63.82,200.82 -14.89,21.57 -57.67,66.45 -83.36,73.31 0,-43.32 -0.57,-47.29 8.89,-79.27 10.46,-35.43 3.26,-46.24 -3.99,-77.4 -6.87,7.9 -5.09,4.91 -8.87,15.6 -2.33,6.53 -3.99,16.97 -5.8,23.59 -9.96,36.47 -24.07,47.77 -29.79,83.21 -4.48,27.71 0.39,19.39 0.39,48.96 -47.6,-31.88 -94.53,-94.05 -49.11,-156.82 16.22,-22.41 39.56,-41.97 60.22,-62.19 11.6,-11.36 18.91,-17.2 24.43,-34.78 5.59,-17.82 3.79,-33.98 -11.06,-44.87 -16.94,72.72 -104.58,108.77 -130.94,167.73 -28.96,64.78 45.89,160.48 98.14,183.31 0.73,0.33 2.37,0.81 3.42,1.47z"/>
   <path class="fil0" d="M1904.53 4641.37c0,-36.1 28.54,-78.33 63.65,-78.33 47.59,0 93.02,6.29 93.02,83.23 0,74.91 -117.43,96.16 -148.41,26.01 -1.76,-3.98 -8.26,-28.21 -8.26,-30.91zm-63.65 -4.9c0,43 18.06,74.64 38.28,98.81 8.57,10.25 26.82,22.69 39.16,29.38 92.62,50.18 206.53,-24.3 206.53,-113.5 0,-52.47 -5.31,-76.96 -45.13,-116.43 -38.27,-37.95 -98.78,-50.25 -152.37,-27.2 -49.08,21.1 -86.47,74.68 -86.47,128.95z"/>
   <path class="fil0" d="M719.71 3104.03c101.46,0 110.39,156.68 -4.89,156.68 -15.45,0 -41.67,-14.47 -50.37,-23.08 -44.32,-43.89 -17.11,-133.6 55.26,-133.6zm-141.98 78.34c0,123.22 149.88,188.47 241.23,104.16 85.65,-79.04 39.73,-246.15 -99.25,-246.15 -76.01,0 -141.98,66.93 -141.98,141.99z"/>
   <path class="fil0" d="M1904.53 1321.92c0,-39.33 35.1,-78.34 78.34,-78.34 107.46,0 99.94,156.67 4.9,156.67 -45.37,0 -83.23,-34.46 -83.23,-78.33zm-63.65 -4.9c0,156.81 204.84,202.42 271.17,65.53 37.61,-77.61 -2.24,-202.62 -138.98,-202.62 -65.72,0 -132.2,70.33 -132.2,137.09z"/>
   <path class="fil0" d="M1968.18 4372.09c-30.28,8.08 -36.86,46.12 -15.8,69.64 24.49,27.35 74.55,10.88 74.55,-30.47 0,-31.61 -24.49,-29.46 -24.49,-48.96l0 -53.85c-43.73,0 -34.26,2.92 -34.26,63.65z"/>
   <path class="fil0" d="M705.01 2918c-36.14,9.65 -35.48,52.22 -8.62,72.51 53.11,40.13 97.54,-57.92 42.9,-72.51l0 -48.96 -34.28 0 0 48.96z"/>
   <path class="fil0" d="M705.01 3461.45l0 34.26 34.28 0 0 -48.96c30.97,-8.27 46.88,-78.33 -29.38,-78.33 -17.45,0 -33.86,26.59 -32.97,43.51 1.47,28.27 28.07,30.75 28.07,49.52z"/>
   <path class="fil0" d="M1938.8 4866.59c0,51.95 88.13,62.63 88.13,0 0,-58.48 -88.13,-57.17 -88.13,0z"/>
   <path class="fil0" d="M2026.93 1096.7c0,-41.5 -27.29,-44.07 -53.85,-44.07 -25.54,0 -48.73,48.07 -16.3,75.17 25.93,21.65 70.15,7.17 70.15,-31.11z"/>
   <path class="fil0" d="M1982.86 1591.19c85.2,0 29.8,-131.13 -28.62,-72.71 -27.97,27.97 -10.81,72.71 28.62,72.71z"/>
   <path class="fil0" d="M1968.18 817.63c0,59.63 -5.83,53.85 34.26,53.85l0 -68.55c-23.81,0 -34.26,-3.31 -34.26,14.7z"/>
   <path class="fil0" d="M1968.18 3603.42c0,59.63 -5.83,53.86 34.26,53.86l0 -68.55c-23.81,0 -34.26,-3.31 -34.26,14.69z"/>
   <path class="fil0" d="M1968.18 5664.63c0,59.64 -5.83,53.85 34.26,53.85l0 -68.54c-23.81,0 -34.26,-3.32 -34.26,14.68z"/>
   <path class="fil0" d="M1968.18 6829.86c0,59.63 -5.83,53.85 34.26,53.85l0 -68.54c-23.81,0 -34.26,-3.31 -34.26,14.68z"/>
   <path class="fil0" d="M1968.18 5126.07c0,59.64 -5.83,53.86 34.26,53.86l0 -68.54c-23.81,0 -34.26,-3.32 -34.26,14.68z"/>
   <path class="fil0" d="M1968.18 3872.71c0,59.63 -5.83,53.85 34.26,53.85l0 -68.54c-23.81,0 -34.26,-3.32 -34.26,14.68z"/>
   <path class="fil0" d="M1968.18 3064.88c0,59.63 -5.83,53.86 34.26,53.86l0 -68.55c-23.81,0 -34.26,-3.31 -34.26,14.7z"/>
   <path class="fil0" d="M1968.18 2526.32c0,59.63 -5.83,53.85 34.26,53.85l0 -68.54c-23.81,0 -34.26,-3.32 -34.26,14.68z"/>
   <path class="fil0" d="M1968.18 279.07c0,59.63 -5.83,53.85 34.26,53.85l0 -68.54c-23.81,0 -34.26,-3.32 -34.26,14.68z"/>
   <path class="fil0" d="M1968.18 548.35c0,59.64 -5.83,53.85 34.26,53.85l0 -68.54c-23.81,0 -34.26,-3.31 -34.26,14.68z"/>
   <path class="fil0" d="M1968.18 2795.59c0,59.63 -5.83,53.87 34.26,53.87l0 -68.55c-23.81,0 -34.26,-3.31 -34.26,14.68z"/>
   <path class="fil0" d="M1968.18 4141.98c0,59.64 -5.83,53.87 34.26,53.87l0 -68.55c-23.81,0 -34.26,-3.31 -34.26,14.68z"/>
   <path class="fil0" d="M705.01 871.49c40.11,0 34.28,5.77 34.28,-53.85 0,-18.01 -10.45,-14.7 -34.28,-14.7l0 68.55z"/>
   <path class="fil0" d="M705.01 3676.87c40.11,0 34.28,5.78 34.28,-53.85 0,-18.01 -10.45,-14.68 -34.28,-14.68l0 68.54z"/>
   <path class="fil0" d="M705.01 3946.14c40.11,0 34.28,5.78 34.28,-53.85 0,-17.99 -10.45,-14.68 -34.28,-14.68l0 68.54z"/>
   <path class="fil0" d="M705.01 4484.7c40.11,0 34.28,5.78 34.28,-53.85 0,-18 -10.45,-14.68 -34.28,-14.68l0 68.54z"/>
   <path class="fil0" d="M705.01 1948.59c40.11,0 34.28,5.78 34.28,-53.85 0,-18 -10.45,-14.69 -34.28,-14.69l0 68.54z"/>
   <path class="fil0" d="M705.01 1679.32c40.11,0 34.28,5.77 34.28,-53.86 0,-18.01 -10.45,-14.68 -34.28,-14.68l0 68.54z"/>
   <path class="fil0" d="M705.01 1140.76c40.11,0 34.28,5.78 34.28,-53.85 0,-18.01 -10.45,-14.69 -34.28,-14.69l0 68.54z"/>
   <path class="fil0" d="M705.01 332.93c40.11,0 34.28,5.77 34.28,-53.85 0,-18.01 -10.45,-14.68 -34.28,-14.68l0 68.54z"/>
   <path class="fil0" d="M705.01 602.2c40.11,0 34.28,5.78 34.28,-53.85 0,-18 -10.45,-14.68 -34.28,-14.68l0 68.54z"/>
   <path class="fil0" d="M1968.18 5395.34c0,59.64 -5.83,53.86 34.26,53.86l0 -68.54c-23.81,0 -34.26,-3.31 -34.26,14.68z"/>
   <path class="fil0" d="M1968.18 3334.15c0,59.64 -5.83,53.85 34.26,53.85l0 -68.54c-23.81,0 -34.26,-3.32 -34.26,14.69z"/>
   <path class="fil0" d="M1968.18 7099.15c0,59.63 -5.83,53.86 34.26,53.86l0 -68.55c-23.81,0 -34.26,-3.31 -34.26,14.7z"/>
   <path class="fil0" d="M705.01 4753.98c40.11,0 34.28,5.77 34.28,-53.86 0,-18.01 -10.45,-14.69 -34.28,-14.69l0 68.55z"/>
   <path class="fil0" d="M705.01 1410.03c40.11,0 34.28,5.78 34.28,-53.85 0,-18 -10.45,-14.68 -34.28,-14.68l0 68.54z"/>
   <path class="fil0" d="M705.01 4215.42c40.11,0 34.28,5.77 34.28,-53.85 0,-18.01 -10.45,-14.7 -34.28,-14.7l0 68.55z"/>
   <polygon class="fil0" points="705.01,239.91 739.29,239.91 739.29,176.26 705.01,176.26 "/>
   <polygon class="fil0" points="705.01,3583.84 739.29,3583.84 739.29,3520.2 705.01,3520.2 "/>
   <polygon class="fil0" points="705.01,2575.28 739.29,2575.28 739.29,2511.64 705.01,2511.64 "/>
   <polygon class="fil0" points="705.01,5287.63 739.29,5287.63 739.29,5223.99 705.01,5223.99 "/>
   <polygon class="fil0" points="705.01,4391.67 739.29,4391.67 739.29,4328.03 705.01,4328.03 "/>
   <polygon class="fil0" points="705.01,1228.89 739.29,1228.89 739.29,1165.25 705.01,1165.25 "/>
   <polygon class="fil0" points="705.01,1586.29 739.29,1586.29 739.29,1522.65 705.01,1522.65 "/>
   <polygon class="fil0" points="705.01,4930.23 739.29,4930.23 739.29,4866.59 705.01,4866.59 "/>
   <polygon class="fil0" points="705.01,4034.27 739.29,4034.27 739.29,3970.63 705.01,3970.63 "/>
   <polygon class="fil0" points="705.01,151.77 739.29,151.77 739.29,88.13 705.01,88.13 "/>
   <polygon class="fil0" points="705.01,421.06 739.29,421.06 739.29,357.4 705.01,357.4 "/>
   <polygon class="fil0" points="705.01,509.18 739.29,509.18 739.29,445.53 705.01,445.53 "/>
   <polygon class="fil0" points="705.01,690.33 739.29,690.33 739.29,626.69 705.01,626.69 "/>
   <polygon class="fil0" points="705.01,959.6 739.29,959.6 739.29,895.96 705.01,895.96 "/>
   <polygon class="fil0" points="705.01,1047.74 739.29,1047.74 739.29,984.09 705.01,984.09 "/>
   <polygon class="fil0" points="705.01,1317.02 739.29,1317.02 739.29,1253.36 705.01,1253.36 "/>
   <polygon class="fil0" points="705.01,1498.16 739.29,1498.16 739.29,1434.52 705.01,1434.52 "/>
   <polygon class="fil0" points="705.01,1767.45 739.29,1767.45 739.29,1703.79 705.01,1703.79 "/>
   <polygon class="fil0" points="705.01,1855.56 739.29,1855.56 739.29,1791.92 705.01,1791.92 "/>
   <polygon class="fil0" points="705.01,2036.72 739.29,2036.72 739.29,1973.08 705.01,1973.08 "/>
   <polygon class="fil0" points="705.01,2124.85 739.29,2124.85 739.29,2061.2 705.01,2061.2 "/>
   <polygon class="fil0" points="705.01,2305.99 739.29,2305.99 739.29,2242.35 705.01,2242.35 "/>
   <polygon class="fil0" points="705.01,2394.12 739.29,2394.12 739.29,2330.48 705.01,2330.48 "/>
   <polygon class="fil0" points="705.01,2663.41 739.29,2663.41 739.29,2599.75 705.01,2599.75 "/>
   <polygon class="fil0" points="705.01,2751.53 739.29,2751.53 739.29,2687.88 705.01,2687.88 "/>
   <polygon class="fil0" points="705.01,2844.55 739.29,2844.55 739.29,2780.91 705.01,2780.91 "/>
   <polygon class="fil0" points="705.01,778.46 739.29,778.46 739.29,714.82 705.01,714.82 "/>
   <polygon class="fil0" points="705.01,3765 739.29,3765 739.29,3701.34 705.01,3701.34 "/>
   <polygon class="fil0" points="705.01,3853.13 739.29,3853.13 739.29,3789.47 705.01,3789.47 "/>
   <polygon class="fil0" points="705.01,4122.4 739.29,4122.4 739.29,4058.76 705.01,4058.76 "/>
   <polygon class="fil0" points="705.01,4303.56 739.29,4303.56 739.29,4239.9 705.01,4239.9 "/>
   <polygon class="fil0" points="705.01,4572.83 739.29,4572.83 739.29,4509.19 705.01,4509.19 "/>
   <polygon class="fil0" points="705.01,4660.96 739.29,4660.96 739.29,4597.3 705.01,4597.3 "/>
   <polygon class="fil0" points="705.01,4842.1 739.29,4842.1 739.29,4778.46 705.01,4778.46 "/>
   <polygon class="fil0" points="705.01,5111.38 739.29,5111.38 739.29,5047.73 705.01,5047.73 "/>
   <polygon class="fil0" points="705.01,5199.52 739.29,5199.52 739.29,5135.86 705.01,5135.86 "/>
   <path class="fil0" d="M1968.18 3515.3l0 48.96 34.26 0 0 -63.66 -19.58 0c-11.28,0 -14.68,3.41 -14.68,14.7z"/>
   <path class="fil0" d="M1968.18 5933.9l0 48.96 34.26 0 0 -63.65 -19.58 0c-11.28,0 -14.68,3.41 -14.68,14.68z"/>
   <path class="fil0" d="M1968.18 2296.2c0,11.29 3.4,14.7 14.68,14.7l19.58 0 0 -63.66 -34.26 0 0 48.96z"/>
   <path class="fil0" d="M1968.18 2168.92l0 48.96 34.26 0 0 -63.66 -19.58 0c-11.28,0 -14.68,3.41 -14.68,14.7z"/>
   <path class="fil0" d="M705.01 2482.25l34.28 0 0 -48.96c0,-11.29 -3.41,-14.69 -14.68,-14.69l-19.59 0 0 63.65z"/>
   <path class="fil0" d="M1968.18 5253.37c0,11.27 3.4,14.68 14.68,14.68l19.58 0 0 -63.64 -34.26 0 0 48.96z"/>
   <path class="fil0" d="M1968.18 190.94l0 48.96 34.26 0 0 -63.65 -19.58 0c-11.28,0 -14.68,3.4 -14.68,14.69z"/>
   <path class="fil0" d="M1968.18 6472.46l0 48.96 34.26 0 0 -63.65 -19.58 0c-11.28,0 -14.68,3.41 -14.68,14.68z"/>
   <path class="fil0" d="M1968.18 6599.76c0,11.27 3.4,14.68 14.68,14.68l19.58 0 0 -63.65 -34.26 0 0 48.96z"/>
   <path class="fil0" d="M1968.18 5791.91c0,11.29 3.4,14.7 14.68,14.7l19.58 0 0 -63.66 -34.26 0 0 48.96z"/>
   <path class="fil0" d="M1968.18 3461.45c0,11.27 3.4,14.68 14.68,14.68l19.58 0 0 -63.64 -34.26 0 0 48.96z"/>
   <path class="fil0" d="M1968.18 3730.72c0,11.29 3.4,14.68 14.68,14.68l19.58 0 0 -63.64 -34.26 0 0 48.96z"/>
   <path class="fil0" d="M1968.18 5522.64c0,11.29 3.4,14.68 14.68,14.68l19.58 0 0 -63.64 -34.26 0 0 48.96z"/>
   <path class="fil0" d="M1968.18 4269.28c0,11.29 3.4,14.68 14.68,14.68l19.58 0 0 -63.64 -34.26 0 0 48.96z"/>
   <path class="fil0" d="M1968.18 4984.09c0,11.29 3.4,14.68 14.68,14.68l19.58 0 0 -63.65 -34.26 0 0 48.96z"/>
   <path class="fil0" d="M1968.18 6330.47c0,11.28 3.4,14.68 14.68,14.68l19.58 0 0 -63.64 -34.26 0 0 48.96z"/>
   <path class="fil0" d="M1968.18 998.78l0 48.96 34.26 0 0 -63.65 -19.58 0c-11.28,0 -14.68,3.41 -14.68,14.68z"/>
   <path class="fil0" d="M1968.18 460.22l0 48.96 34.26 0 0 -63.65 -19.58 0c-11.28,0 -14.68,3.41 -14.68,14.68z"/>
   <path class="fil0" d="M1968.18 2976.75l0 48.96 34.26 0 0 -63.64 -19.58 0c-11.28,0 -14.68,3.4 -14.68,14.68z"/>
   <path class="fil0" d="M1968.18 6203.19l0 48.96 34.26 0 0 -63.66 -19.58 0c-11.28,0 -14.68,3.41 -14.68,14.7z"/>
   <path class="fil0" d="M1968.18 3246.02l0 48.96 34.26 0 0 -63.64 -19.58 0c-11.28,0 -14.68,3.41 -14.68,14.68z"/>
   <path class="fil0" d="M1968.18 48.96c0,11.29 3.4,14.68 14.68,14.68l19.58 0 0 -63.64 -34.26 0 0 48.96z"/>
   <path class="fil0" d="M1968.18 6741.73l0 48.96 34.26 0 0 -63.65 -19.58 0c-11.28,0 -14.68,3.41 -14.68,14.68z"/>
   <path class="fil0" d="M1968.18 2026.93c0,11.29 3.4,14.69 14.68,14.69l19.58 0 0 -63.65 -34.26 0 0 48.96z"/>
   <path class="fil0" d="M1968.18 1899.63l0 48.96 34.26 0 0 -63.65 -19.58 0c-11.28,0 -14.68,3.41 -14.68,14.68z"/>
   <path class="fil0" d="M705.01 2212.98l34.28 0 0 -48.96c0,-11.29 -3.41,-14.7 -14.68,-14.7l-19.59 0 0 63.66z"/>
   <path class="fil0" d="M1968.18 1630.36l0 48.96 34.26 0 0 -63.65 -19.58 0c-11.28,0 -14.68,3.4 -14.68,14.68z"/>
   <path class="fil0" d="M705.01 63.64l19.59 0c11.27,0 14.68,-3.39 14.68,-14.68l0 -48.96 -34.28 0 0 63.64z"/>
   <path class="fil0" d="M705.01 5018.36l34.28 0 0 -48.96c0,-11.29 -3.41,-14.68 -14.68,-14.68l-19.59 0 0 63.65z"/>
   <path class="fil0" d="M1968.18 2438.19l0 48.96 34.26 0 0 -63.65 -19.58 0c-11.28,0 -14.68,3.4 -14.68,14.69z"/>
   <path class="fil0" d="M1968.18 7011.02l0 48.96 34.26 0 0 -63.64 -19.58 0c-11.28,0 -14.68,3.4 -14.68,14.68z"/>
   <path class="fil0" d="M1968.18 1757.64c0,11.29 3.4,14.7 14.68,14.7l19.58 0 0 -63.65 -34.26 0 0 48.95z"/>
   <path class="fil0" d="M1968.18 3999.99c0,11.29 3.4,14.7 14.68,14.7l19.58 0 0 -63.65 -34.26 0 0 48.95z"/>
   <path class="fil0" d="M1968.18 2707.48l0 48.95 34.26 0 0 -63.65 -19.58 0c-11.28,0 -14.68,3.41 -14.68,14.7z"/>
   <path class="fil0" d="M1968.18 6061.2c0,11.27 3.4,14.68 14.68,14.68l19.58 0 0 -63.64 -34.26 0 0 48.96z"/>
   <path class="fil0" d="M1968.18 729.5l0 48.96 34.26 0 0 -63.65 -19.58 0c-11.28,0 -14.68,3.4 -14.68,14.68z"/>
   <path class="fil0" d="M1968.18 3157.9c0,54.07 -5.34,48.96 34.26,48.96l0 -63.65c-23.81,0 -34.26,-3.31 -34.26,14.7z"/>
   <path class="fil0" d="M1968.18 5576.5c0,54.08 -5.34,48.96 34.26,48.96l0 -63.65c-23.81,0 -34.26,-3.32 -34.26,14.69z"/>
   <path class="fil0" d="M1968.18 6922.88c0,54.08 -5.34,48.96 34.26,48.96l0 -63.65c-23.81,0 -34.26,-3.32 -34.26,14.68z"/>
   <path class="fil0" d="M1968.18 1811.51c0,54.07 -5.34,48.96 34.26,48.96l0 -63.66c-23.81,0 -34.26,-3.31 -34.26,14.7z"/>
   <path class="fil0" d="M1968.18 6384.33c0,54.08 -5.34,48.96 34.26,48.96l0 -63.65c-23.81,0 -34.26,-3.31 -34.26,14.68z"/>
   <path class="fil0" d="M1968.18 5037.94c0,54.08 -5.34,48.96 34.26,48.96l0 -63.64c-23.81,0 -34.26,-3.31 -34.26,14.68z"/>
   <path class="fil0" d="M1968.18 2080.78c0,54.08 -5.34,48.96 34.26,48.96l0 -63.65c-23.81,0 -34.26,-3.32 -34.26,14.68z"/>
   <path class="fil0" d="M1968.18 2619.34c0,54.08 -5.34,48.96 34.26,48.96l0 -63.65c-23.81,0 -34.26,-3.32 -34.26,14.68z"/>
   <path class="fil0" d="M1968.18 641.37c0,54.08 -5.34,48.96 34.26,48.96l0 -63.65c-23.81,0 -34.26,-3.32 -34.26,14.69z"/>
   <path class="fil0" d="M1968.18 6115.05c0,54.08 -5.34,48.96 34.26,48.96l0 -63.65c-23.81,0 -34.26,-3.32 -34.26,14.68z"/>
   <path class="fil0" d="M1968.18 910.64c0,54.08 -5.34,48.96 34.26,48.96l0 -63.65c-23.81,0 -34.26,-3.31 -34.26,14.68z"/>
   <path class="fil0" d="M1968.18 2888.62c0,54.08 -5.34,48.96 34.26,48.96l0 -63.65c-23.81,0 -34.26,-3.31 -34.26,14.69z"/>
   <path class="fil0" d="M1968.18 102.82c0,54.08 -5.34,48.96 34.26,48.96l0 -63.65c-23.81,0 -34.26,-3.31 -34.26,14.69z"/>
   <path class="fil0" d="M1968.18 6653.61c0,54.07 -5.34,48.96 34.26,48.96l0 -63.66c-23.81,0 -34.26,-3.31 -34.26,14.7z"/>
   <path class="fil0" d="M1968.18 5307.22c0,54.07 -5.34,48.96 34.26,48.96l0 -63.66c-23.81,0 -34.26,-3.31 -34.26,14.7z"/>
   <path class="fil0" d="M1968.18 3784.58c0,54.08 -5.34,48.96 34.26,48.96l0 -63.64c-23.81,0 -34.26,-3.31 -34.26,14.69z"/>
   <path class="fil0" d="M1968.18 5845.77c0,54.08 -5.34,48.96 34.26,48.96l0 -63.65c-23.81,0 -34.26,-3.31 -34.26,14.69z"/>
   <path class="fil0" d="M1968.18 7192.16c0,54.08 -5.34,48.96 34.26,48.96l0 -63.65c-23.81,0 -34.26,-3.31 -34.26,14.68z"/>
   <path class="fil0" d="M1968.18 4053.86c0,54.07 -5.34,48.95 34.26,48.95l0 -63.64c-23.81,0 -34.26,-3.31 -34.26,14.7z"/>
   <path class="fil0" d="M1968.18 372.1c0,54.07 -5.34,48.96 34.26,48.96l0 -63.66c-23.81,0 -34.26,-3.31 -34.26,14.7z"/>
   <path class="fil0" d="M1968.18 2350.06c0,54.08 -5.34,48.96 34.26,48.96l0 -63.65c-23.81,0 -34.26,-3.31 -34.26,14.68z"/>
   <path class="fil0" d="M705.01 5351.29l19.59 0c11.27,0 14.68,-3.41 14.68,-14.7l0 -19.58 -34.28 0 0 34.28z"/>
  </g>
 </g>
</svg>
